<?xml version="1.0" encoding="UTF-8"?>
<svg width="60px" height="60px" viewBox="0 0 60 60" version="1.1" xmlns="http://www.w3.org/2000/svg" xmlns:xlink="http://www.w3.org/1999/xlink">
    <title>Electricity Consumption</title>
    <g id="Electricity-Consumption" stroke="none" stroke-width="1" fill="none" fill-rule="evenodd">
        <g id="Fast-Charge.svg">
            <path d="M30,0 L30,0 C46.5685425,0 60,13.4314575 60,30 L60,30 C60,46.5685425 46.5685425,60 30,60 L30,60 C13.4314575,60 0,46.5685425 0,30 L0,30 C0,13.4314575 13.4314575,0 30,0 Z" id="Rectangle" fill="#DD0707"></path>
            <path d="M29.52,37.77 L32.17,37.77 C32.29,37.77 32.41,37.77 32.47,37.62 C32.87609,36.6231688 33.4975949,35.7284749 34.29,35 L34.83,34.47 C35.329849,33.9702578 36.140151,33.9702578 36.64,34.47 C36.8855831,34.7090763 37.0241106,35.0372631 37.0241106,35.38 C37.0241106,35.7227369 36.8855831,36.0509237 36.64,36.29 C36.32,36.62 35.99,36.94 35.64,37.29 C35.4312945,37.5156053 35.2438344,37.759973 35.08,38.02 C34.8699918,38.3515679 34.7621817,38.7375977 34.77,39.13 C34.77,40.35 34.77,41.57 34.77,42.79 C34.7808116,43.8170119 34.3776069,44.8051122 33.6513596,45.5313596 C32.9251122,46.2576069 31.9370119,46.6608116 30.91,46.650212 L28.11,46.650212 C27.0829881,46.6608116 26.0948878,46.2576069 25.3686404,45.5313596 C24.6423931,44.8051122 24.2391884,43.8170119 24.25,42.79 C24.25,41.67 24.25,40.54 24.25,39.42 C24.2672955,38.7236065 24.0167448,38.0471194 23.55,37.53 C22.9756848,36.8790275 22.3646917,36.2613569 21.72,35.68 C20.6483797,34.7252629 19.6888748,33.6516909 18.86,32.48 C17.4650572,30.4274707 16.8383296,27.9488872 17.09,25.48 C17.3487155,21.0659936 20.0493731,17.1654723 24.09,15.37 C27.5583657,13.6470308 31.6328593,13.644919 35.1030092,15.3642919 C38.5731591,17.0836648 41.0397521,20.3267222 41.77,24.13 C42.2759489,26.6062681 41.9232434,29.1810185 40.77,31.43 C40.5223873,31.9907268 39.9096051,32.2945796 39.3133876,32.1522726 C38.7171701,32.0099655 38.3076757,31.4621125 38.34,30.85 C38.3498605,30.668795 38.3975502,30.4916618 38.48,30.33 C40.6429712,25.7371704 38.8214875,20.2551202 34.34,17.87 C31.7257274,16.4459884 28.6129288,16.2607662 25.8482342,17.3647108 C23.0835395,18.4686553 20.9544343,20.7469733 20.04,23.58 C18.9665907,26.641028 19.7267141,30.0460703 22,32.36 C22.72,33.13 23.5,33.83 24.25,34.56 C25.2472707,35.3947379 26.0378874,36.4488935 26.56,37.64 C26.62,37.8 26.74,37.77 26.85,37.77 L29.52,37.77 Z M29.52,40.31 L27.09,40.31 C26.9,40.31 26.81,40.31 26.81,40.56 C26.81,41.33 26.81,42.09 26.81,42.85 C26.8046015,43.1893657 26.9363439,43.5165573 27.175399,43.7574947 C27.4144541,43.9984322 27.7406024,44.1327367 28.08,44.13 L31,44.13 C31.3402399,44.1355437 31.6680345,44.002136 31.9077069,43.7605764 C32.1473793,43.5190168 32.278212,43.1901859 32.27,42.85 C32.27,42.09 32.27,41.32 32.27,40.56 C32.27,40.33 32.19,40.31 32,40.31 L29.52,40.31 Z" id="Shape" fill="#FFFFFF" fill-rule="nonzero"></path>
            <path d="M32.44,20.57 L30.14,24.28 L32.14,24.28 C32.47,24.28 32.8,24.28 33.14,24.28 C33.5145792,24.2613423 33.859823,24.4821378 34,24.83 C34.1544603,25.1665637 34.0870007,25.5633846 33.83,25.83 C33.02,26.77 32.2,27.7 31.38,28.63 L27.9,32.55 C27.7840517,32.7140272 27.6078823,32.8254814 27.41,32.86 C27.05,32.86 26.88,32.68 27.01,32.33 L28.57,28 C28.7,27.65 28.7,27.65 28.33,27.65 L26.22,27.65 C25.7227575,27.7035292 25.2403944,27.4602502 24.9878641,27.0285745 C24.7353338,26.5968988 24.7596591,26.0572071 25.05,25.65 C25.97,23.99 26.91,22.34 27.83,20.65 C27.9,20.54 27.95,20.45 28.12,20.45 L32.35,20.45 L32.44,20.57 Z" id="Path" fill="#FFFFFF" fill-rule="nonzero"></path>
            <path d="M18.79,16.5 C18.79,17.2030376 18.2230161,17.7745075 17.52,17.78 C16.8185984,17.78 16.25,17.2114016 16.25,16.51 C16.25,15.8085984 16.8185984,15.24 17.52,15.24 C18.2131086,15.2505615 18.7739598,15.8069965 18.79,16.5 L18.79,16.5 Z" id="Path" fill="#FFFFFF" fill-rule="nonzero"></path>
            <path d="M42.75,16.51 C42.75,17.2100951 42.1833998,17.7781333 41.4833071,17.7799607 C40.7832144,17.7817794 40.2136853,17.2166997 40.2099996,16.5166142 C40.2063496,15.8165287 40.7699266,15.2455126 41.47,15.24 C42.1730376,15.24 42.7445075,15.8069839 42.75,16.51 Z" id="Path" fill="#FFFFFF" fill-rule="nonzero"></path>
            <path d="M15.73,22.88 C15.7727703,23.3624722 15.5395407,23.8277601 15.1273878,24.0821981 C14.7152349,24.336636 14.1947651,24.336636 13.7826122,24.0821981 C13.3704593,23.8277601 13.1372297,23.3624722 13.18,22.88 C13.1799895,22.5414353 13.3151645,22.216881 13.5555029,21.9784203 C13.7958413,21.7399595 14.1214458,21.6073341 14.46,21.61 C15.1569114,21.6207236 15.7192764,22.1830886 15.73,22.88 L15.73,22.88 Z" id="Path" fill="#FFFFFF" fill-rule="nonzero"></path>
            <path d="M45.81,22.89 C45.7989542,23.5899875 45.2235331,24.1490252 44.5235186,24.1398529 C43.8235041,24.1306805 43.2629283,23.5567577 43.2702271,22.8567211 C43.2775259,22.1566845 43.8499464,21.5945747 44.55,21.6 C44.8885819,21.6026239 45.2120982,21.740342 45.4486858,21.9825627 C45.6852735,22.2247833 45.8153423,22.5514501 45.81,22.89 L45.81,22.89 Z" id="Path" fill="#FFFFFF" fill-rule="nonzero"></path>
            <path d="M14.45,28.6 C14.9695095,28.5959569 15.4399322,28.9063272 15.6406121,29.3855286 C15.8412919,29.8647301 15.7324177,30.4176981 15.3650579,30.7850579 C14.9976981,31.1524177 14.4447301,31.2612919 13.9655286,31.0606121 C13.4863272,30.8599322 13.1759569,30.3895095 13.18,29.87 C13.18,29.1685984 13.7485984,28.6 14.45,28.6 L14.45,28.6 Z" id="Path" fill="#FFFFFF" fill-rule="nonzero"></path>
            <path d="M44.54,28.6 C45.2005309,28.6585549 45.7069735,29.2118788 45.7069735,29.875 C45.7069735,30.5381212 45.2005309,31.0914451 44.54,31.15 C43.8794691,31.0914451 43.3730265,30.5381212 43.3730265,29.875 C43.3730265,29.2118788 43.8794691,28.6585549 44.54,28.6 Z" id="Path" fill="#FFFFFF" fill-rule="nonzero"></path>
            <path d="M17.52,37.13 C16.8199049,37.13 16.2518667,36.5633998 16.2500393,35.8633071 C16.2482206,35.1632144 16.8133003,34.5936853 17.5133858,34.5899996 C18.2134713,34.5863496 18.7844874,35.1499266 18.79,35.85 C18.7926659,36.1885542 18.6600405,36.5141587 18.4215797,36.7544971 C18.183119,36.9948355 17.8585647,37.13 17.52,37.13 L17.52,37.13 Z" id="Path" fill="#FFFFFF" fill-rule="nonzero"></path>
            <path d="M42.75,35.87 C42.7390752,36.5691017 42.1691871,37.1300854 41.47,37.13 C40.7686305,37.1244557 40.2045487,36.5513964 40.2100785,35.8500269 C40.2156084,35.1486573 40.7886559,34.5845636 41.4900256,34.5900789 C42.1913953,34.5955943 42.7555009,35.1686302 42.75,35.87 L42.75,35.87 Z" id="Path" fill="#FFFFFF" fill-rule="nonzero"></path>
        </g>
    </g>
</svg>