<?xml version="1.0" encoding="UTF-8"?>
<svg width="60px" height="60px" viewBox="0 0 60 60" version="1.1" xmlns="http://www.w3.org/2000/svg" xmlns:xlink="http://www.w3.org/1999/xlink">
    <title>Fast Charge</title>
    <g id="Fast-Charge" stroke="none" stroke-width="1" fill="none" fill-rule="evenodd">
        <g id="Electricity-Consumption.svg">
            <path d="M30,0 L30,0 C46.5685425,0 60,13.4314575 60,30 L60,30 C60,46.5685425 46.5685425,60 30,60 L30,60 C13.4314575,60 0,46.5685425 0,30 L0,30 C0,13.4314575 13.4314575,0 30,0 Z" id="Rectangle" fill="#DD0707"></path>
            <path d="M13.71,31.58 L13.71,21.71 C13.7084283,19.2716362 15.4363219,17.174678 17.83,16.71 C18.1915848,16.6349787 18.5610295,16.6047515 18.93,16.62 C19.11,16.62 19.19,16.62 19.19,16.38 C19.1271976,15.7315601 19.3576924,15.0890159 19.8183541,14.6283541 C20.2790159,14.1676924 20.9215601,13.9371976 21.57,14 L25.74,14 C26.369334,13.946332 26.9908198,14.1695276 27.4422176,14.6113212 C27.8936154,15.0531148 28.1301231,15.6696575 28.09,16.3 C28.09,16.61 28.27,16.54 28.44,16.55 C30.7924872,16.51478 32.8613387,18.0995203 33.44,20.38 C33.5427789,20.7377555 33.596602,21.1077891 33.6001031,21.48 L33.6001031,28.9 C33.6082291,29.5510899 33.1227037,30.1029232 32.4758648,30.1776576 C31.829026,30.252392 31.2304568,29.8258126 31.09,29.19 C31.0747387,29.0437303 31.0747387,28.8962697 31.09,28.75 L31.09,21.84 C31.1348503,21.1022321 30.8598861,20.3808699 30.3353314,19.8601441 C29.8107767,19.3394182 29.0874196,19.0697461 28.35,19.12 L26.86,19.12 C26.5110289,19.1310984 26.1728806,18.9980383 25.925052,18.7521015 C25.6772233,18.5061647 25.541576,18.1690459 25.55,17.82 L25.55,16.82 C25.55,16.66 25.55,16.59 25.35,16.59 L21.94,16.59 C21.77,16.59 21.72,16.65 21.73,16.81 C21.73,17.13 21.73,17.45 21.73,17.81 C21.7602559,18.1800207 21.6270875,18.5447531 21.3655335,18.8082303 C21.1039795,19.0717075 20.7402324,19.2075444 20.37,19.18 C19.76,19.18 19.15,19.18 18.55,19.18 C17.2198941,19.3060516 16.2170743,20.4446244 16.26,21.78 L16.26,41.38 C16.2174676,42.1145213 16.4942692,42.8316164 17.0192925,43.347059 C17.5443157,43.8625016 18.2663865,44.1260511 19,44.07 L24.9,44.07 C25.4791807,44.0686701 25.9858931,44.4593646 26.1318996,45.0198413 C26.2779061,45.5803179 26.0262159,46.1685795 25.52,46.45 C25.3133294,46.5579056 25.0831267,46.6128794 24.85,46.6101076 C22.8,46.6101076 20.76,46.6101076 18.71,46.6101076 C15.9621066,46.577605 13.742395,44.3578934 13.71,41.61 C13.7,38.26 13.71,34.92 13.71,31.58 Z" id="Path" fill="#FFFFFF" fill-rule="nonzero"></path>
            <path d="M44.39,29.06 L45.09,29.06 C45.7369767,29.070067 46.2635597,29.5834854 46.29,30.23 C46.441563,33.9755029 45.4699671,37.6808006 43.5,40.87 C42.4336715,42.5755475 40.8600488,43.9043844 39,44.67 C38.6016534,44.8195705 38.1897188,44.9300896 37.77,45 C37.1012277,45.0992868 36.4705674,44.6613283 36.33,44 C36.1629136,43.3605804 36.5353513,42.7043807 37.17,42.52 C39.63,41.96 41.06,40.23 42.17,38.12 C43.0920138,36.1687259 43.622034,34.0554404 43.73,31.9 C43.73,31.77 43.79,31.6 43.53,31.62 C40.7283466,31.7233702 38.0077092,32.5876133 35.66,34.12 C34.7560122,34.7386419 33.9983008,35.54755 33.44,36.49 C32.9320086,37.2996199 32.7364759,38.2666178 32.89,39.21 C32.89,39.29 32.89,39.4 32.96,39.44 C33.03,39.48 33.12,39.36 33.18,39.3 C34.6922061,37.7780955 36.3886858,36.4511461 38.23,35.35 C38.6202934,35.0598212 39.1413199,35.0158988 39.574684,35.2366435 C40.0080481,35.4573882 40.278873,35.9046596 40.2736386,36.3909776 C40.2684043,36.8772957 39.988015,37.3186342 39.55,37.53 C38.4954262,38.152352 37.4922374,38.8579281 36.55,39.64 C34.5811082,41.3058244 32.8692733,43.253542 31.47,45.42 C31.36,45.59 31.26,45.76 31.14,45.93 C30.9280502,46.3683195 30.4841706,46.6468879 29.9972963,46.6471342 C29.510422,46.6473801 29.066261,46.3692606 28.8538682,45.9311556 C28.6414753,45.4930506 28.6982398,44.972083 29,44.59 C29.5739786,43.6728518 30.1982661,42.7881662 30.87,41.94 C30.9762026,41.8352141 31.0043057,41.6746248 30.94,41.54 C29.7063732,38.9210525 30.2550681,35.8091115 32.31,33.77 C33.8462156,32.0687042 35.8114189,30.8115267 38,30.13 C40.0648488,29.4571849 42.2186074,29.0965399 44.39,29.06 Z" id="Path" fill="#FFFFFF" fill-rule="nonzero"></path>
            <path d="M23.61,31.93 L19.76,31.93 C19.1045885,31.9381766 18.552374,31.442488 18.49,30.79 C18.4287752,30.1439527 18.8570079,29.5529916 19.49,29.41 C19.5864134,29.4001032 19.6835866,29.4001032 19.78,29.41 L27.47,29.41 C28.1411989,29.3756216 28.7229771,29.8701212 28.7971958,30.5380894 C28.8714144,31.2060575 28.4123747,31.8162035 27.75,31.93 C27.6135237,31.9402021 27.4764763,31.9402021 27.34,31.93 L23.61,31.93 Z" id="Path" fill="#FFFFFF" fill-rule="nonzero"></path>
            <path d="M23.64,33.84 L27.43,33.84 C27.9124722,33.7972297 28.3777601,34.0304593 28.6321981,34.4426122 C28.886636,34.8547651 28.886636,35.3752349 28.6321981,35.7873878 C28.3777601,36.1995407 27.9124722,36.4327703 27.43,36.39 L19.86,36.39 C19.3775278,36.4327703 18.9122399,36.1995407 18.6578019,35.7873878 C18.403364,35.3752349 18.403364,34.8547651 18.6578019,34.4426122 C18.9122399,34.0304593 19.3775278,33.7972297 19.86,33.84 L23.64,33.84 Z" id="Path" fill="#FFFFFF" fill-rule="nonzero"></path>
            <path d="M23.65,38.3 L27.41,38.3 C27.9017806,38.2381645 28.3850571,38.4658063 28.65056,38.8843514 C28.9160629,39.3028966 28.9160629,39.8371034 28.65056,40.2556486 C28.3850571,40.6741937 27.9017806,40.9018355 27.41,40.84 L19.88,40.84 C19.4262727,40.84 19.0070113,40.5979394 18.7801477,40.205 C18.553284,39.8120606 18.553284,39.3279394 18.7801477,38.935 C19.0070113,38.5420606 19.4262727,38.3 19.88,38.3 L23.65,38.3 Z" id="Path" fill="#FFFFFF" fill-rule="nonzero"></path>
            <path d="M23.64,20.84 L27.43,20.84 C27.9124722,20.7972297 28.3777601,21.0304593 28.6321981,21.4426122 C28.886636,21.8547651 28.886636,22.3752349 28.6321981,22.7873878 C28.3777601,23.1995407 27.9124722,23.4327703 27.43,23.39 L19.86,23.39 C19.3775278,23.4327703 18.9122399,23.1995407 18.6578019,22.7873878 C18.403364,22.3752349 18.403364,21.8547651 18.6578019,21.4426122 C18.9122399,21.0304593 19.3775278,20.7972297 19.86,20.84 L23.64,20.84 Z" id="Path" fill="#FFFFFF" fill-rule="nonzero"></path>
            <path d="M23.65,25.3 L27.41,25.3 C27.9017806,25.2381645 28.3850571,25.4658063 28.65056,25.8843514 C28.9160629,26.3028966 28.9160629,26.8371034 28.65056,27.2556486 C28.3850571,27.6741937 27.9017806,27.9018355 27.41,27.84 L19.88,27.84 C19.4262727,27.84 19.0070113,27.5979394 18.7801477,27.205 C18.553284,26.8120606 18.553284,26.3279394 18.7801477,25.935 C19.0070113,25.5420606 19.4262727,25.3 19.88,25.3 L23.65,25.3 Z" id="Path" fill="#FFFFFF" fill-rule="nonzero"></path>
        </g>
    </g>
</svg>