<?xml version="1.0" encoding="UTF-8"?>
<svg width="60px" height="60px" viewBox="0 0 60 60" version="1.1" xmlns="http://www.w3.org/2000/svg" xmlns:xlink="http://www.w3.org/1999/xlink">
    <title>Super Performance</title>
    <g id="Super-Performance" stroke="none" stroke-width="1" fill="none" fill-rule="evenodd">
        <rect id="Rectangle" fill-opacity="0.8" fill="#DD0707" x="0" y="0" width="60" height="60" rx="30"></rect>
        <g id="Group" transform="translate(12.000000, 15.000000)" fill="#FFFFFF" fill-rule="nonzero">
            <path d="M0.21224634,15.2129209 C0.897471706,10.93587 2.87500172,7.36213394 6.10576334,4.48881829 C8.44697731,2.3946199 11.3083,0.968582054 14.3899716,0.360100299 C16.3667486,-0.0410722334 18.3968415,-0.107600577 20.3956427,0.163287944 C22.0766306,0.390678474 23.7176275,0.851706562 25.2710899,1.5330151 C25.9223072,1.81665643 26.2500866,2.32894741 26.2117372,2.98667694 C26.1680327,3.55114374 25.7861693,4.03262362 25.2464884,4.2037298 C24.8856826,4.3141624 24.4965785,4.28524425 24.1560611,4.12268942 C22.9674691,3.6007442 21.717558,3.23143571 20.4361629,3.02357925 C20.1706109,2.98233549 19.9028882,2.95556322 19.6402306,2.91431945 C19.4578897,2.88537646 19.3949387,2.94543317 19.397833,3.13500978 C19.407963,3.73268259 19.4043452,4.3303554 19.397833,4.92730463 C19.392768,5.77099289 18.7806237,6.41135661 17.9890328,6.40629159 C17.1974419,6.40122657 16.5947041,5.76665144 16.5896391,4.91862174 C16.5896391,4.35640409 16.569379,3.7927393 16.5968748,3.2319688 C16.6113463,2.92517308 16.487615,2.88827076 16.2350874,2.92010805 C14.2557511,3.15316335 12.341803,3.77426213 10.6027809,4.74785808 C8.41602145,5.97294149 6.56347525,7.71616361 5.20780698,9.82445909 C5.06309201,10.0415315 5.09927075,10.1204012 5.32068465,10.2202545 C5.88507302,10.4749529 6.44656709,10.7383341 6.99720753,11.0212519 C7.56014875,11.3106818 7.85102584,11.786794 7.79313985,12.424987 C7.73742459,13.0132534 7.40602731,13.4184553 6.84670397,13.6174384 C6.45235569,13.7570883 6.06451958,13.701373 5.68898424,13.5219265 C5.13110804,13.2527566 4.56961398,12.9908226 4.01607923,12.7122462 C3.84676272,12.6261408 3.78236456,12.6652139 3.7266493,12.8323597 C2.27443461,17.0703375 2.55373449,21.1787953 4.63328856,25.1584569 C4.72590614,25.3357328 4.80839367,25.35744 4.9798809,25.2691639 C5.4371802,25.0325549 5.90026809,24.8082467 6.36552671,24.58828 C7.18967844,24.1975495 8.01165945,24.44863 8.36982899,25.1939121 C8.72799853,25.9391942 8.41686135,26.7170371 7.61296972,27.117174 C6.73454987,27.5546956 5.85275334,27.9861874 4.96758013,28.4116494 C4.1376398,28.8103391 3.44228439,28.5961609 2.9415706,27.8291716 C1.49369737,25.599114 0.619618971,23.1613904 0.219482089,20.5340902 C-0.208150637,17.4957995 0.101539391,15.9806338 0.21224634,15.2129209 Z" id="Path"></path>
            <path d="M13.7785301,17.6955061 C13.8339605,16.5517065 14.3847272,15.48874 15.2872044,14.783841 C17.6844078,12.8656441 20.2364562,11.1616254 22.7472609,9.40261497 C24.7009129,8.03288781 26.6798901,6.69427437 28.6429486,5.33467726 C29.1306381,4.99604424 29.6393112,4.8708658 30.1935695,5.12556414 C30.9989083,5.49603445 31.2449237,6.45911255 30.7196084,7.23840265 C29.9352533,8.40335812 29.1277438,9.55384211 28.3318114,10.7115618 C26.1835178,13.8366815 24.0287119,16.9574598 21.7740527,20.0073277 C21.1011281,20.9168613 20.3471632,21.7048343 19.2133214,22.0398494 C16.4839971,22.8473589 13.769868,20.8235201 13.7785301,17.6955061 Z M23.980956,12.0631996 C21.6951831,13.6253977 19.3826379,15.1354984 17.2111899,16.8387935 C16.7386955,17.2099874 16.5107694,17.6759696 16.6381186,18.2801546 C16.758232,18.8510551 17.1200194,19.2208019 17.677172,19.3467039 C18.2755684,19.4798416 18.7683229,19.2743464 19.1568826,18.7786976 C20.1561394,17.5088238 21.0743559,16.1817876 22.0048731,14.8634342 C22.6618791,13.9319522 23.3196086,12.9985407 23.9780617,12.0631996 L23.980956,12.0631996 Z" id="Shape"></path>
            <path d="M35.9988104,17.4668565 C35.9575666,21.6368182 34.946009,24.9196772 32.9894626,27.9145535 C32.5611063,28.5708358 31.8643038,28.7929733 31.1537533,28.4702589 C30.1648677,28.0201954 29.1837002,27.5522837 28.2102509,27.0665238 C27.4779931,26.6989477 27.2124412,25.8892675 27.5517978,25.1902942 C27.8911544,24.4913209 28.6856395,24.2047853 29.4330923,24.5318411 C29.9569605,24.7619379 30.4714222,25.0166363 30.9837132,25.2713346 C31.1624362,25.3610579 31.2557773,25.3567164 31.3621428,25.1562862 C32.7137806,22.5897663 33.3215835,19.8691249 33.1305597,16.9683134 C33.0111887,15.2157532 32.5927081,13.4965569 31.8932468,11.8852002 C31.5784917,11.1478775 31.7138002,10.510408 32.2492456,10.0762631 C32.9865683,9.48437892 34.0277925,9.76006093 34.4373359,10.6638059 C34.9640804,11.824616 35.3599037,13.0404804 35.6174864,14.2889158 C35.870014,15.5312938 36.014729,16.785249 35.9988104,17.4668565 Z" id="Path"></path>
        </g>
    </g>
</svg>