<?xml version="1.0" encoding="UTF-8"?>
<svg width="60px" height="60px" viewBox="0 0 60 60" version="1.1" xmlns="http://www.w3.org/2000/svg" xmlns:xlink="http://www.w3.org/1999/xlink">
    <title>Super Affordable</title>
    <g id="Super-Affordable" stroke="none" stroke-width="1" fill="none" fill-rule="evenodd">
        <rect id="Rectangle" fill-opacity="0.8" fill="#DD0707" x="0" y="0" width="60" height="60" rx="30"></rect>
        <g id="Group-3" transform="translate(15.000000, 15.000000)" fill="#FFFFFF" fill-rule="nonzero">
            <path d="M7.0309105,14.3747701 C8.03987802,14.0713212 8.98891439,14.1130454 9.871192,14.6152533 C10.2402517,14.832472 10.5768509,15.1006276 10.8710561,15.4118066 C11.7540923,16.3221533 12.6098181,17.2613275 13.4731302,18.192157 C13.5320421,18.2691797 13.5828839,18.3520518 13.6248546,18.4394678 L13.7007168,18.3689159 C13.6043718,17.6565697 13.4920957,16.9464993 13.4154749,16.2318772 C13.3259575,15.3973928 13.2637505,14.5629084 13.2000262,13.728424 C13.1886469,13.5766995 13.1545089,13.4856649 13.0073362,13.4143544 C10.1063649,11.9980067 9.50250162,8.59331033 10.4075379,6.30606441 C11.0667806,4.63709558 12.037817,3.16005817 13.0915432,1.72853809 C13.4268542,1.27336477 13.7743032,0.825019053 14.1384419,0.392604401 C14.5602358,-0.108086248 15.3696857,-0.138431135 15.8005831,0.350880181 C17.240448,1.98646963 18.553623,3.71461099 19.4207282,5.7416495 C20.1960401,7.55475655 20.2248677,9.37241533 19.3114866,11.1339361 C18.5748644,12.5555941 17.3641034,13.4446993 15.8218245,13.864976 C15.6094103,13.9233899 15.5547895,14.0060797 15.579824,14.2010456 C15.7654336,15.6404048 15.9502845,17.079764 16.1343768,18.5191231 C16.1343768,18.5350542 16.1563769,18.5487094 16.2436184,18.6571924 C16.2892028,18.5579286 16.3448751,18.4636162 16.4097567,18.3757435 C17.2715515,17.4305003 18.1507946,16.5019467 18.9989343,15.5445655 C20.0685916,14.3375976 21.362801,13.9233899 22.9680456,14.3611149 L22.9680456,14.0189763 C22.9680456,11.5301897 22.9680456,9.04089743 22.9680456,6.55109938 C22.9680456,4.66364736 24.1401169,3.27764461 25.9934309,2.95978191 C27.9658486,2.62143641 29.9761974,4.27675004 29.9913699,6.27799539 C30.0073009,8.4248962 29.9974388,10.5733143 29.9913699,12.7209737 C29.9913699,13.3661959 29.4683139,13.8892519 28.8230917,13.8892519 C28.1778695,13.8892519 27.6548135,13.3661959 27.6548135,12.7209737 C27.6502618,10.6514523 27.6548135,8.581931 27.6510204,6.51240965 C27.6510204,5.65820106 26.9143982,5.09606201 26.133776,5.33882111 C25.6429474,5.49054555 25.3228089,5.9366154 25.3137054,6.49723721 C25.3068778,6.95241052 25.3137054,7.41441144 25.3137054,7.87337787 C25.3137054,11.1536602 25.3137054,14.4339426 25.3137054,17.714225 C25.3259885,18.5514727 25.0251365,19.3631238 24.4701175,19.9900916 C23.6154032,20.967197 22.7520911,21.9367161 21.8801814,22.8986491 C21.4037666,23.4296846 20.6792824,23.4668571 20.1823849,23.0162355 C19.6854873,22.5656139 19.674108,21.8456815 20.1505227,21.3146459 C20.9895589,20.3891268 21.8392158,19.4727112 22.6790105,18.5471922 C23.09777,18.0859499 23.1190114,17.463121 22.7465279,16.997327 C22.3929059,16.5666011 21.7850137,16.4441982 21.2922492,16.7044988 C21.1725236,16.7698446 21.064158,16.854129 20.971352,16.9540855 C19.5643607,18.4581805 18.1598981,19.9648042 16.7579643,21.4739566 C16.7248459,21.5139554 16.6939487,21.5557425 16.6654124,21.5991292 C17.2639653,22.2287857 17.7145869,22.9411319 17.929277,23.7809267 C18.4072089,25.6471373 17.9960357,27.2948647 16.6684469,28.6967985 C16.3399635,29.0434888 15.9796179,29.3613515 15.6215482,29.677697 C15.0996162,30.1396979 14.3940975,30.1108703 13.9427173,29.6230762 C13.4913371,29.1352821 13.5345786,28.4259704 14.033752,27.9465212 C14.3432698,27.6491413 14.670236,27.3692097 14.971409,27.0634849 C15.9970662,26.0226553 16.0623077,24.4295487 15.0730644,23.3614086 C13.0703018,21.1978181 11.0425047,19.0577449 9.01698341,16.9131199 C8.80761748,16.6813887 8.51276501,16.5451149 8.20060023,16.5358073 C7.88843546,16.5264996 7.58598759,16.6449639 7.36318703,16.8638095 C6.897393,17.3083621 6.8769102,18.0267773 7.33966974,18.5183645 C8.64348842,19.9051259 9.9531232,21.2865769 11.2685741,22.6627176 C11.5978161,23.0078907 11.7480233,23.3985811 11.6190575,23.8636165 C11.5112893,24.2745871 11.1883816,24.5943284 10.7763691,24.6980419 C10.3643565,24.8017555 9.92855153,24.6730004 9.63905361,24.3620313 C9.07767319,23.7907888 8.54056867,23.1967876 7.99284345,22.6134071 C7.24408334,21.8160952 6.50063359,21.0149902 5.74580451,20.2237472 C5.02283755,19.465125 4.67994032,18.5790543 4.68373343,17.5253281 C4.69814725,13.8740794 4.68752654,10.2228308 4.69056103,6.57158218 C4.69056103,6.08606398 4.52745726,5.69233906 4.0980771,5.44047649 C3.33793766,5.00426873 2.41165996,5.51482146 2.34717707,6.40847841 C2.34034947,6.49571996 2.34717707,6.58372014 2.34717707,6.67172031 C2.34717707,9.97172686 2.34717707,13.2714805 2.34717707,16.5709813 C2.35248743,19.2504349 3.00641976,21.7569227 4.3818018,24.0669272 C4.96895085,25.0352383 5.66204615,25.9351936 6.44828866,26.750174 C6.82456527,27.1471862 7.19907176,27.5457158 7.57180813,27.9457625 C8.08994709,28.4995567 8.09829193,29.2217651 7.5945668,29.6905936 C7.09084166,30.1594221 6.38077128,30.1116289 5.8755289,29.5745244 C4.68297481,28.3114184 3.4623517,27.0710711 2.54214298,25.5818958 C1.21683,23.4334777 0.387655942,21.1151283 0.119862307,18.6025716 C0.0502459449,17.982349 0.0127704766,17.3589395 0.00758622195,16.7348437 C0,13.3089059 0,9.88220944 0,6.45551299 C0,4.67502669 1.16751956,3.25412732 2.93131616,2.97950609 C5.16545853,2.63205712 7.02787602,4.37764679 7.02787602,6.37206454 C7.0309105,8.91041441 7.0309105,11.4485114 7.02787602,13.9863555 L7.0309105,14.3747701 Z M15.0131332,3.04550622 C14.716512,3.47488638 14.425201,3.87999063 14.1551315,4.29192248 C13.5110613,5.27813134 12.8654738,6.27723677 12.5195421,7.41592868 C12.1986449,8.46206869 12.3814728,9.45813963 12.9504395,10.3836587 C13.0407155,10.5308314 13.1780262,10.6484179 13.3130609,10.7986251 C13.4746474,9.88827842 13.6165098,9.04620778 13.7788549,8.20489577 C13.9123724,7.51530819 14.5238219,7.10034185 15.1785129,7.23082487 C15.8332038,7.36130789 16.222377,8.0008264 16.0827905,8.70406917 C15.9689972,9.26797834 15.865066,9.83315187 15.7709968,10.3995898 C15.7141002,10.736418 15.6814794,11.077798 15.6314103,11.4662126 C15.7687209,11.3994538 15.846859,11.3637986 15.9227213,11.3235916 C17.5454141,10.4709003 17.9383804,8.650207 17.4399656,7.16558336 C16.9233439,5.63771826 15.9985835,4.34502604 15.0131332,3.04550622 Z" id="Shape"></path>
            <path d="M29.8775765,18.6708476 C29.4540884,22.1257282 27.9610082,25.3617522 25.6072922,27.9260384 C25.1015441,28.4798326 24.5887155,29.0285693 24.0688064,29.5722485 C23.5605295,30.1070772 22.846666,30.1503186 22.3505271,29.6890763 C21.8543882,29.227834 21.8604572,28.5094188 22.3679754,27.9442453 C23.2199082,26.9936917 24.1211513,26.0787933 24.8919115,25.0614809 C26.3833627,23.0996839 27.2163299,20.8496105 27.5410202,18.4091229 C27.6151549,17.7887327 28.1634607,17.3359296 28.7866778,17.3804312 C29.4413688,17.4456727 29.8897145,17.9456048 29.8775765,18.6708476 Z" id="Path"></path>
        </g>
    </g>
</svg>