<?xml version="1.0" encoding="UTF-8"?>
<svg width="60px" height="60px" viewBox="0 0 60 60" version="1.1" xmlns="http://www.w3.org/2000/svg" xmlns:xlink="http://www.w3.org/1999/xlink">
    <title>Super Electric</title>
    <g id="Super-Electric" stroke="none" stroke-width="1" fill="none" fill-rule="evenodd">
        <rect id="Rectangle" fill-opacity="0.8" fill="#DD0707" x="0" y="0" width="60" height="60" rx="30"></rect>
        <g id="Group-2" transform="translate(13.000000, 14.000000)" fill="#FFFFFF" fill-rule="nonzero">
            <path d="M33.9967007,16.2393259 C33.8383359,16.6253402 33.630482,16.9676393 33.2287961,17.1507487 C32.7157599,17.3849967 32.1631324,17.289318 31.7284539,16.8802087 C31.5593664,16.7218438 31.398527,16.5502819 31.2335636,16.3853185 C31.0686002,16.2203551 30.9151843,16.0487931 30.7386734,15.85991 C30.6454691,16.0009537 30.677637,16.1230267 30.677637,16.234377 C30.677637,17.6728579 30.677637,19.1110639 30.677637,20.5489949 C30.677637,21.3787609 30.1217103,21.9841766 29.3579297,21.9899503 C28.5941491,21.995724 28.0258502,21.3853594 28.0250253,20.5630168 C28.0250253,18.1985413 28.0264,15.8310414 28.0291494,13.4605172 C28.0391058,13.2642811 27.9621743,13.0736115 27.8188211,12.9392329 C24.5706916,9.67845617 21.3264112,6.41493007 18.08598,3.14865459 C17.4401482,2.49787394 16.6986377,2.49787394 16.0486819,3.14865459 C12.7659101,6.42207849 9.48341317,9.69522745 6.20119122,12.9681015 C6.05439208,13.0992601 5.97290805,13.2884842 5.97849062,13.4852618 C5.98508916,18.0432007 5.98701373,22.6011397 5.98426434,27.1590787 C5.98426434,28.5389976 6.80413248,29.5856904 8.09827042,29.8809749 C8.34855274,29.9259669 8.60304615,29.9431175 8.8571021,29.9321136 C10.6167118,29.9321136 12.3763215,29.9321136 14.1359312,29.9321136 C15.173551,29.9321136 15.678339,29.4223767 15.6791639,28.383932 C15.6791639,27.2778523 15.674215,26.1717727 15.6841128,25.065693 C15.6841128,24.8784596 15.6296748,24.804226 15.4515144,24.7464888 C13.0776909,23.9785842 11.706845,22.3545194 11.3274291,19.8899661 C11.3052623,19.7143788 11.2967137,19.5373397 11.3018598,19.3604336 C11.3018598,18.3761519 11.3018598,17.3915953 11.3018598,16.4067637 C11.3018598,15.5712241 11.8445894,15.0045748 12.6859028,15.0045748 C13.0158296,15.0045748 13.1123332,14.9303412 13.1024354,14.5921662 C13.0768661,13.6197069 13.0917128,12.645598 13.0941872,11.6723139 C13.0941872,10.882964 13.6872307,10.2701249 14.4345149,10.2866213 C15.1817992,10.3031176 15.7434996,10.8928618 15.7451492,11.6681898 C15.7451492,12.686014 15.7517478,13.7038383 15.7451492,14.7200129 C15.7451492,14.9352901 15.8028864,15.0045748 16.0222877,15.0004507 C16.7195331,14.9883533 17.4165035,14.9883533 18.1131989,15.0004507 C18.3400236,15.0045748 18.4159068,14.9443631 18.4126075,14.7076406 C18.4002353,13.7013638 18.406009,12.6942622 18.4076586,11.6871606 C18.4076586,10.8887377 18.978432,10.2849716 19.7273659,10.2849716 C20.4762998,10.2849716 21.0544965,10.8870881 21.0561462,11.6822117 C21.0561462,12.6893133 21.0635695,13.6955901 21.0520221,14.7018669 C21.0520221,14.9286916 21.1056352,14.9971514 21.3415329,15.0037499 C22.2100652,15.0284944 22.7148532,15.5720489 22.715678,16.4496542 C22.715678,17.3899456 22.715678,18.3302371 22.715678,19.2705285 C22.7112706,21.7860493 21.0580203,24.0011098 18.6476804,24.7209195 C18.4051842,24.7926786 18.3243521,24.8858829 18.3276514,25.1415762 C18.3449725,26.2583785 18.3350747,27.3760056 18.3350747,28.4936327 C18.3350747,30.7585803 16.7679224,32.5080172 14.506274,32.5880245 C12.3617497,32.6647324 10.2172254,32.7001996 8.07270109,32.558331 C5.79785569,32.4073895 3.74241162,30.4525731 3.40588627,28.1983482 C3.35758008,27.8706532 3.33386909,27.5398022 3.334952,27.2085677 C3.334952,23.568925 3.334952,19.9292824 3.334952,16.2896397 L3.334952,15.841764 C2.96873323,16.2055084 2.65282831,16.5189388 2.3377482,16.8315445 C2.00782138,17.1614713 1.61603329,17.3338581 1.13928904,17.2538508 C0.607282043,17.1614713 0.24848663,16.8628875 0.0793991358,16.360574 C-0.0962466371,15.8913434 0.0251530518,15.3625731 0.38788071,15.016947 C0.990821968,14.3999839 1.60613548,13.7945682 2.21732491,13.1850284 L14.1969676,1.22518124 C15.8400032,-0.415379854 18.3119799,-0.407131684 19.9484169,1.2425024 C24.3842829,5.70861175 28.8206989,10.1736213 33.2576647,14.6375312 C33.5545988,14.9369398 33.855657,15.228925 34,15.6413335 L33.9967007,16.2393259 Z M17.0211412,17.6827557 C16.0923972,17.6827557 15.1628284,17.6877046 14.2349092,17.6827557 C14.0295298,17.6827557 13.9387999,17.7223469 13.9478729,17.9532957 C13.9668437,18.4168429 13.9404495,18.8820397 13.9594203,19.3455868 C14.0221064,20.8624254 15.182624,22.1408918 16.6136816,22.2852348 C18.2138266,22.4460741 19.6019937,21.4892863 19.9706869,19.9609004 C20.128227,19.3076453 20.0366723,18.6411931 20.0671905,17.9813395 C20.0779131,17.7495659 20.0078037,17.6811061 19.7735557,17.6844053 C18.852235,17.690179 17.9342137,17.6827557 17.0211412,17.6827557 Z" id="Shape"></path>
            <path d="M23.7269037,29.9354129 C24.221794,29.9354129 24.7216331,29.9354129 25.2198226,29.9354129 C26.8777048,29.921391 27.9458429,28.8862456 28.0242005,27.2234144 C28.0561298,26.5084421 28.6492247,25.9475641 29.3648648,25.955575 C30.0805048,25.9635859 30.6608957,26.5375999 30.6768121,27.2531078 C30.6894807,27.8063174 30.6083249,28.3576749 30.4367904,28.8837711 C29.73982,31.0777845 27.7973758,32.5410099 25.4383991,32.6086449 C24.2448888,32.6432872 23.0464297,32.6276157 21.8553939,32.6152434 C21.0231535,32.6053456 20.4532049,32.0296233 20.4573067,31.2518209 C20.4639275,30.4987629 21.0511973,29.9469603 21.8685909,29.9370625 C22.4880285,29.9296391 23.1074661,29.9354129 23.7269037,29.9354129 Z" id="Path"></path>
        </g>
    </g>
</svg>